<svg xmlns="http://www.w3.org/2000/svg" width="166.4" height="62.242" viewBox="0 0 166.4 62.242">
  <g id="Grupo_29" data-name="Grupo 29" transform="translate(-97 -12.412)">
    <path id="Caminho_993" data-name="Caminho 993" d="M3.727-4.1H1.974v3.019H.984V-8.546H3.455a2.925,2.925,0,0,1,1.94.574A2.066,2.066,0,0,1,6.075-6.3,2.009,2.009,0,0,1,5.7-5.086a2.249,2.249,0,0,1-1.048.774L6.4-1.143v.062H5.347Zm-1.753-.8H3.486a1.706,1.706,0,0,0,1.166-.38A1.285,1.285,0,0,0,5.086-6.3a1.353,1.353,0,0,0-.413-1.063,1.747,1.747,0,0,0-1.192-.375H1.974Zm9.8.374H8.538v2.645H12.3v.8H7.554V-8.546h4.691v.8H8.538v2.4h3.235Zm4.047.123A4.628,4.628,0,0,1,13.977-5.3a1.709,1.709,0,0,1-.577-1.31,1.805,1.805,0,0,1,.7-1.458,2.8,2.8,0,0,1,1.833-.577,3.058,3.058,0,0,1,1.371.3,2.255,2.255,0,0,1,.933.82,2.1,2.1,0,0,1,.331,1.143h-.989a1.365,1.365,0,0,0-.431-1.068,1.751,1.751,0,0,0-1.215-.388,1.793,1.793,0,0,0-1.136.321,1.071,1.071,0,0,0-.408.891.963.963,0,0,0,.387.773,3.8,3.8,0,0,0,1.318.578,6.113,6.113,0,0,1,1.456.577,2.209,2.209,0,0,1,.779.736,1.878,1.878,0,0,1,.254.989,1.744,1.744,0,0,1-.707,1.453,3.016,3.016,0,0,1-1.892.546,3.508,3.508,0,0,1-1.435-.295,2.416,2.416,0,0,1-1.028-.807,1.97,1.97,0,0,1-.361-1.164h.989a1.286,1.286,0,0,0,.5,1.069,2.1,2.1,0,0,0,1.335.392A1.935,1.935,0,0,0,17.184-2.1a1.032,1.032,0,0,0,.415-.866,1.014,1.014,0,0,0-.384-.848A4.433,4.433,0,0,0,15.82-4.409Zm9.286-3.332h-2.4v6.659h-.979V-7.741H19.334v-.8h5.772ZM30.03-3.035H26.9l-.7,1.953H25.185l2.85-7.464H28.9l2.855,7.464h-1.01Zm-2.83-.8h2.538L28.466-7.331ZM38.024-8.546v5.075a2.381,2.381,0,0,1-.664,1.728,2.675,2.675,0,0,1-1.787.754l-.261.01a2.794,2.794,0,0,1-1.953-.661,2.365,2.365,0,0,1-.738-1.82V-8.546H33.6v5.055a1.707,1.707,0,0,0,.446,1.259,1.714,1.714,0,0,0,1.271.449,1.726,1.726,0,0,0,1.279-.446,1.7,1.7,0,0,0,.443-1.256v-5.06ZM42.415-4.1H40.662v3.019h-.989V-8.546h2.471a2.925,2.925,0,0,1,1.94.574A2.066,2.066,0,0,1,44.763-6.3a2.009,2.009,0,0,1-.377,1.215,2.249,2.249,0,0,1-1.048.774l1.753,3.168v.062H44.035Zm-1.753-.8h1.512a1.706,1.706,0,0,0,1.166-.38A1.285,1.285,0,0,0,43.774-6.3a1.353,1.353,0,0,0-.413-1.063,1.747,1.747,0,0,0-1.192-.375H40.662Zm9.7,1.871H47.236l-.7,1.953H45.519l2.85-7.464h.861l2.855,7.464h-1.01Zm-2.83-.8h2.538L48.8-7.331ZM58.927-1.082h-.989L54.18-6.834v5.752H53.19V-8.546h.989l3.768,5.778V-8.546h.979Zm6.856-6.659h-2.4v6.659h-.979V-7.741H60.011v-.8h5.772Z" transform="translate(96.016 21.061)" fill="#6200ee"/>
    <path id="Caminho_994" data-name="Caminho 994" d="M20.869,33.644a11.435,11.435,0,0,1,3.926-2.5,10.4,10.4,0,0,1,5.289-.552L33,23.585a41.012,41.012,0,0,1,3.18-6.1,13.48,13.48,0,0,1,2.5-3.05,12.354,12.354,0,0,1,2.823-1.882q-.649-.13-1.233-.26t-1.233-.324a22.673,22.673,0,0,0-3.8-.649,23.2,23.2,0,0,0-4.413.032,24.515,24.515,0,0,0-4.673.941,19.263,19.263,0,0,0-4.575,2.077q-7.463,4.608-9.6,14.407a3.662,3.662,0,0,1-1.752,2.531,4.2,4.2,0,0,1-2.726.584,3.739,3.739,0,0,1-2.3-1.233,3.174,3.174,0,0,1-.552-2.92,23.251,23.251,0,0,1,1.947-5.484,25.826,25.826,0,0,1,3.083-4.737,30.627,30.627,0,0,1,3.894-3.959,33.323,33.323,0,0,1,4.38-3.147,25.558,25.558,0,0,1,5.094-2.369,29.642,29.642,0,0,1,5.711-1.33,34.028,34.028,0,0,1,5.938-.26,26.114,26.114,0,0,1,5.646.844,42.583,42.583,0,0,0,6.49,1.3,24.178,24.178,0,0,0,4.186.13A7.958,7.958,0,0,0,53.284,8.3q.681-.292.811-.357a2.444,2.444,0,0,1,3.31-.195,2.61,2.61,0,0,1,.876,1.72,2.043,2.043,0,0,1-.617,1.72,4.917,4.917,0,0,1-1.233,1.038,9.266,9.266,0,0,1-3.31,1.168,22.9,22.9,0,0,1-5.321.195,5.506,5.506,0,0,0-3.7,1.558,18.143,18.143,0,0,0-3.31,4.088,49.707,49.707,0,0,0-3.018,5.808q-1.46,3.277-2.888,6.717A7.057,7.057,0,0,0,38.1,31.47a7.952,7.952,0,0,0,1.785-.876,2.4,2.4,0,0,1,1.817-.422,2.291,2.291,0,0,1,1.558,1.006,2.452,2.452,0,0,1,.422,1.85,2.309,2.309,0,0,1-1.006,1.59,10.776,10.776,0,0,1-4.478,1.85A13.641,13.641,0,0,1,33,36.3q-1.363,3.439-2.888,6.684a57.827,57.827,0,0,1-3.245,6,29.02,29.02,0,0,1-3.764,4.867,13.642,13.642,0,0,1-4.51,3.147,15.687,15.687,0,0,1-3.634,1.233,16.578,16.578,0,0,1-3.115.324,10.761,10.761,0,0,1-4.316-.779,14.778,14.778,0,0,1-2.758-1.493,11.524,11.524,0,0,1-3.829-5,12.431,12.431,0,0,1-.779-6.425,13.356,13.356,0,0,1,3.212-7.2A18,18,0,0,1,10.421,32.8a2.212,2.212,0,0,1,1.85.032,2.339,2.339,0,0,1,1.265,3.18,2.144,2.144,0,0,1-1.3,1.265,13.543,13.543,0,0,0-5,3.407A8.65,8.65,0,0,0,5.034,45.52a7.3,7.3,0,0,0,.422,3.926,6.519,6.519,0,0,0,6.2,4.218,12.932,12.932,0,0,0,5-1.071,10.312,10.312,0,0,0,3.342-2.5,25.674,25.674,0,0,0,3.018-4.056,51.413,51.413,0,0,0,2.726-5.127q1.3-2.791,2.531-5.776a7.9,7.9,0,0,0-3.18.227A4.967,4.967,0,0,0,23.01,36.5a2.152,2.152,0,0,1-1.525.681,1.67,1.67,0,0,1-1.2-.519,1.624,1.624,0,0,1-.389-1.3A2.888,2.888,0,0,1,20.869,33.644ZM48.417,46.3a7,7,0,0,1-1.4-1.2,5.338,5.338,0,0,1-1.071-1.85,7.435,7.435,0,0,1-.357-2.628,12.616,12.616,0,0,1,.681-3.537,25.661,25.661,0,0,1,2.012-4.543q1.3-2.336,2.531-4.478.909-1.428,1.817-3.05a7.365,7.365,0,0,0,.973-2.271,2.4,2.4,0,0,1,.7-1.752,2.262,2.262,0,0,1,1.666-.714,2.392,2.392,0,0,1,1.729.681,2.519,2.519,0,0,1,.769,1.72,7.487,7.487,0,0,1-.9,3.245q-.9,1.817-2.562,4.673-.768,1.363-1.8,3.147a35.935,35.935,0,0,0-1.781,3.472,12.827,12.827,0,0,0-.973,3.083q-.227,1.4.552,1.85a1.229,1.229,0,0,0,.487.065,2.48,2.48,0,0,0,.941-.26,10.109,10.109,0,0,0,1.453-.844,18.9,18.9,0,0,0,2.021-1.622q1.153-1.038,2.247-2.239T60.2,34.909q.941-1.136,1.655-2.044t1.1-1.493a2.549,2.549,0,0,1,1.2-.973,1.393,1.393,0,0,1,1.071.032,1.03,1.03,0,0,1,.552.811,1.855,1.855,0,0,1-.487,1.363,16.153,16.153,0,0,0-1.168,1.882q-.844,1.493-2.142,3.375t-2.914,3.861A22.141,22.141,0,0,1,55.69,45.1a9.436,9.436,0,0,1-3.641,1.85A4.568,4.568,0,0,1,48.417,46.3Zm14.537-31.54a3.05,3.05,0,1,1-6.1,0,3.05,3.05,0,1,1,6.1,0ZM78.367,47.207A5.128,5.128,0,0,1,74.6,45.65q-2.661-2.661-.973-7.2a19.52,19.52,0,0,1,1.558-3.277q.973-1.655,2.012-3.342.973-1.558,1.882-3.147a17.761,17.761,0,0,0,1.363-2.888q.519-1.3.324-1.72a2.126,2.126,0,0,0-.324-.552.923.923,0,0,0-.195-.162.906.906,0,0,0-.389.032,7.158,7.158,0,0,0-2.628,1.493A29.375,29.375,0,0,0,73.3,28.842a85.685,85.685,0,0,0-5.159,6.847q-2.888,4.186-6.327,10.091a2.365,2.365,0,0,1-1.46,1.168,2.17,2.17,0,0,1-1.785-.26,2.257,2.257,0,0,1-1.2-1.4,2.4,2.4,0,0,1,.162-1.85L69.346,20.081a2.145,2.145,0,0,1,1.4-1.168,2.727,2.727,0,0,1,1.85.13,2.5,2.5,0,0,1,1.785,1.882,3.74,3.74,0,0,1-.422,2.661,14.01,14.01,0,0,1,5.062-4.024,4.55,4.55,0,0,1,4.543.195,4.659,4.659,0,0,1,1.1,1.071,4.713,4.713,0,0,1,.779,1.622,6.841,6.841,0,0,1,.195,2.174,10.739,10.739,0,0,1-.584,2.791,19.848,19.848,0,0,1-1.622,3.472q-1.038,1.785-2.142,3.537-.519.909-1.233,2.109t-1.3,2.336a11.426,11.426,0,0,0-.844,2.044q-.26.909.13,1.3a.508.508,0,0,0,.13.1,1.273,1.273,0,0,0,.389.032,5.271,5.271,0,0,0,2.3-.973,23.485,23.485,0,0,0,3.018-2.4,42.443,42.443,0,0,0,3.31-3.439,43.833,43.833,0,0,0,3.18-4.153,2.835,2.835,0,0,1,1.265-1.1,1.314,1.314,0,0,1,1.1-.032,1,1,0,0,1,.487.844,2.269,2.269,0,0,1-.519,1.46q-.195.324-.844,1.493t-1.622,2.726Q89.269,38.316,88,40.1a27.042,27.042,0,0,1-2.726,3.277,19.571,19.571,0,0,1-3.05,2.563,6.686,6.686,0,0,1-3.212,1.2A2.277,2.277,0,0,1,78.367,47.207ZM94.1,47.142a6.2,6.2,0,0,1-2.92-.714q-3.245-1.817-3.115-6.165a15.887,15.887,0,0,1,1.265-5.451,33.794,33.794,0,0,1,3.277-6.1,34.58,34.58,0,0,1,4.737-5.451,19.8,19.8,0,0,1,5.062-3.5q5.386-2.6,9.6.195l1.817-3.375q.909-1.687,1.655-3.212t1.265-2.758a13.24,13.24,0,0,0,.714-2.077A2.3,2.3,0,0,1,118.505,7a2.359,2.359,0,0,1,1.817-.357,2.3,2.3,0,0,1,1.525,1.038,2.48,2.48,0,0,1,.357,1.882,30.509,30.509,0,0,1-3.115,7.56q-2.6,4.9-6.814,12.1l-.13.26a8.488,8.488,0,0,0-.519.909q-.26.519-.584,1.038a23.666,23.666,0,0,0-2.791,7.4,6.369,6.369,0,0,0-.162,2.369q.162.811.357.941.324.195,1.46-.292a11.231,11.231,0,0,0,3.018-2.369,32.4,32.4,0,0,0,3.6-3.991q1.72-2.239,3.147-4.121a2.071,2.071,0,0,1,1.136-.941,1.392,1.392,0,0,1,1.038.065,1.12,1.12,0,0,1,.552.779,1.755,1.755,0,0,1-.389,1.33,20.182,20.182,0,0,0-1.33,1.979q-.811,1.33-1.85,2.953t-2.271,3.342a31.6,31.6,0,0,1-2.531,3.115,14.034,14.034,0,0,1-2.661,2.271,4.918,4.918,0,0,1-2.661.876,5.241,5.241,0,0,1-2.791-.844,5.325,5.325,0,0,1-1.655-1.558,6.418,6.418,0,0,1-1.006-2.855,25.651,25.651,0,0,1-4.51,3.732A8.559,8.559,0,0,1,94.1,47.142Zm15.51-22.908q-.065,0-.195-.13-.195-.13-.552-.357a2.524,2.524,0,0,0-.941-.324,4.389,4.389,0,0,0-1.4.032,8.314,8.314,0,0,0-1.979.649,16.449,16.449,0,0,0-4.218,3.05,28.539,28.539,0,0,0-3.7,4.38,27.838,27.838,0,0,0-2.628,4.7,11.707,11.707,0,0,0-1.071,4.088,2.186,2.186,0,0,0,.195,1.4q.26.292.389.422.779.454,2.3-.389A16.136,16.136,0,0,0,99.3,38.933a49.379,49.379,0,0,0,4.186-4.965,58.288,58.288,0,0,0,4.38-6.879l.324-.454ZM126.39,47.207a8.277,8.277,0,0,1-5.711-1.752,7.254,7.254,0,0,1-2.239-3.764,11.657,11.657,0,0,1-.1-4.51,19.247,19.247,0,0,1,1.428-4.7,28.027,28.027,0,0,1,2.4-4.348,28.988,28.988,0,0,1,3.732-4.575,21.829,21.829,0,0,1,4.381-3.439,11.993,11.993,0,0,1,4.51-1.622,6.555,6.555,0,0,1,4.186.811,5.691,5.691,0,0,1,2.4,2.5,6.051,6.051,0,0,1,.519,3.537,8.7,8.7,0,0,1-.844,3.05,13.577,13.577,0,0,1-1.785,2.791,11.931,11.931,0,0,1-2.5,2.271,11.742,11.742,0,0,1-3.05,1.493A16.834,16.834,0,0,1,132,35.3a8.971,8.971,0,0,1-2.174.065,8.832,8.832,0,0,1-2.434-.584,11.965,11.965,0,0,1-2.628-1.46,19.6,19.6,0,0,0-1.071,2.563,11.949,11.949,0,0,0-.552,2.369,6.381,6.381,0,0,0,.065,2.044,2.939,2.939,0,0,0,.779,1.525,4.394,4.394,0,0,0,3.829,1.071,15.247,15.247,0,0,0,5.321-1.817,31.725,31.725,0,0,0,5.776-4.056,36.148,36.148,0,0,0,5.257-5.646,2.619,2.619,0,0,1,1.265-1.071,1.379,1.379,0,0,1,1.1,0,1,1,0,0,1,.487.844,2.164,2.164,0,0,1-.584,1.46,53.708,53.708,0,0,1-9.572,10.351q-4.77,3.8-8.923,4.186a4.729,4.729,0,0,1-.779.065Zm1.038-18.041a4.862,4.862,0,0,0,4.8,1.1,6.442,6.442,0,0,0,2.726-1.59,10.223,10.223,0,0,0,1.85-2.369,5.918,5.918,0,0,0,.779-2.271,1.363,1.363,0,0,0-.552-1.428,2.066,2.066,0,0,0-1.72-.065,9.622,9.622,0,0,0-2.5,1.2,17.893,17.893,0,0,0-2.791,2.271A19.524,19.524,0,0,0,127.428,29.166Zm17.36,2.206q.909-1.428,1.817-3.115t1.687-3.439a36.1,36.1,0,0,0,1.33-3.439,18.725,18.725,0,0,0,.746-2.985,3.142,3.142,0,0,1,.973-1.979A2.1,2.1,0,0,1,152.9,15.8a1.529,1.529,0,0,1,1.233.909,3.547,3.547,0,0,1,0,2.531,11.159,11.159,0,0,1,2.985.552,4.818,4.818,0,0,1,2.466,1.85,5.751,5.751,0,0,1,.779,4.056,15.49,15.49,0,0,1-2.206,5.549q-1.947,3.245-3.018,5.159a16.451,16.451,0,0,0-1.525,3.537,8.228,8.228,0,0,0-.357,1.655q-.032.552.1.681a3.483,3.483,0,0,0,.909-.292,8.236,8.236,0,0,0,1.979-1.4,30.037,30.037,0,0,0,3.083-3.277,53.436,53.436,0,0,0,4.153-5.938,3.065,3.065,0,0,1,1.233-1.2,1.428,1.428,0,0,1,1.136-.1.936.936,0,0,1,.584.779,2.263,2.263,0,0,1-.487,1.493q-1.038,1.687-2.531,4.218t-3.18,4.867a28.392,28.392,0,0,1-3.472,4.024,5.134,5.134,0,0,1-3.407,1.687,4.436,4.436,0,0,1-3.18-1.168,5.037,5.037,0,0,1-1.752-2.823,7.965,7.965,0,0,1,.26-3.7,25.8,25.8,0,0,1,1.947-4.77q1.363-2.661,3.31-5.97a10.5,10.5,0,0,0,1.493-3.245q.13-.973.13-1.038a2.353,2.353,0,0,0-.876-.292,9.257,9.257,0,0,0-2.823.162q-.649,1.233-1.363,2.531t-1.363,2.434q-.649,1.136-1.2,2.044a11.628,11.628,0,0,1-.876,1.3,2.49,2.49,0,0,1-1.168.941,1.5,1.5,0,0,1-1.1.032.854.854,0,0,1-.519-.746A2.429,2.429,0,0,1,144.788,31.373Z" transform="translate(96.955 16.09)" fill="#6200ee"/>
  </g>
</svg>
